# xmcd
#
# Track frame offsets: 
#        150
#        39986
#        74755
#        117362
#        136217
#        158766
#        199122
#        227254
#        258455
#
# Disc length: 3799 seconds
#
# Revision: 1
# Processed by: cddbd v1.5.2PL0 Copyright (c) Steve Scherf et al.
# Submitted via: ExactAudioCopy v0.95b4
#
DISCID=770ed509
DTITLE=Pony Poindexter and Rene Thomas Quintet - At The Blue Note, Paris
DTITLE=1964
DYEAR=1964
DGENRE=Jazz
TTITLE0=Big "P" <J. Heath>
TTITLE1=Bongo Bop <C. Parker>
TTITLE2=They Say It's Wonderful <I. Berling>
TTITLE3=Au Privave <C. Parker>
TTITLE4=Moanin' <B. Timmons>
TTITLE5=The Jive Samba <N. Adderley>
TTITLE6=All Blues <M. Davis>
TTITLE7=Marmaduke <C. Parker>
TTITLE8=Buzzy <C. Parker>
EXTD=YEAR: 1964
EXTT0=
EXTT1=
EXTT2=
EXTT3=
EXTT4=
EXTT5=
EXTT6=
EXTT7=
EXTT8=
PLAYORDER=
